Mr Nobody R5 AC3 XViD - IMAGiNE


Ripper ...........: IMAGiNE                                        IMDB Rating.......:7.5/10                             
Video Codec.......: XViD                                        Release Date......:08/06/10
Audio Codec.......:AC3                                           Theatre Date......:25/02/10
Audio Bitrate.....:448                                               Runtime.......:2h 13mn
Subtitles.........:NIL                                                 Language..........:ENGLISH
Resolution......720 x 304 IMDb URL..........:http://www.imdb.com/title/tt0485947/

DETAILS:

Video
Format                           : MPEG-4 Visual
Format profile                   : Streaming Video@L1
Format settings, BVOP            : Yes
Format settings, QPel            : No
Format settings, GMC             : No warppoints
Format settings, Matrix          : Default
Muxing mode                      : Packed bitstream
Codec ID                         : XVID
Codec ID/Hint                    : XviD
Duration                         : 2h 13mn
Bit rate                         : 1 012 Kbps
Width                            : 720 pixels
Height                           : 304 pixels
Display aspect ratio             : 2.35
Frame rate                       : 25.000 fps
Resolution                       : 24 bits
Colorimetry                      : 4:2:0
Scan type                        : Progressive
Bits/(Pixel*Frame)               : 0.185
Stream size                      : 965 MiB (69%)
Writing library                  : XviD 50

Audio
Format                           : AC-3
Format/Info                      : Audio Coding 3
Codec ID                         : 2000
Duration                         : 2h 13mn
Bit rate mode                    : Constant
Bit rate                         : 448 Kbps
Channel(s)                       : 6 channels
Channel positions                : Front: L C R, Surround: L R, LFE
Sampling rate                    : 48.0 KHz
Stream size                      : 427 MiB (30%)
Alignment                        : Aligned on interleaves
Interleave, duration             : 40 ms (1.00 video frame)
Interleave, preload duration     : 512 ms 
http://www.imdb.com/title/tt0485947/

Screens: 
http://www.postimg.com/image/16000/15927.jpg 
http://www.postimg.com/image/16000/15928.jpg 
http://www.postimg.com/image/16000/15929.jpg

Mr Nobody R5 AC3 XViD - IMAGiNE Torrent Free Download 
http://thepiratebay.org/user/extremezone/0/7

How To Get Your Maxspeed (uTorrent)

Torrent Client - Preferences - Bandwidth - Number of connections - Set aprox. 500 for each 
Torrent Client - Preferences - BiTorrent - Protocol Encryption - Forced
Bandwidth Allocation - High (Set download/upload limit - Unlimited)
Stop Other Active Torrents - Start downloading and wait for connections
Enjoy and Seed for at least 1:1 ratio. Don't forget to say thanks/leave reviews.
Also please spread the link where you found this torrent to your friends.
Recommended player for all our movies VLC PLAYER.